<mxfile host="Electron" agent="Mozilla/5.0 (Windows NT 10.0; Win64; x64) AppleWebKit/537.36 (KHTML, like Gecko) draw.io/28.2.8 Chrome/140.0.7339.240 Electron/38.4.0 Safari/537.36" version="28.2.8">
  <diagram id="w01lw9psN_4NcJiquEbq" name="ページ1">
    <mxGraphModel dx="1042" dy="722" grid="1" gridSize="10" guides="1" tooltips="1" connect="1" arrows="1" fold="1" page="1" pageScale="1" pageWidth="827" pageHeight="1169" math="0" shadow="0">
      <root>
        <mxCell id="0" />
        <mxCell id="1" parent="0" />
        <mxCell id="9VsbXfIdv_9POeoBGJ0m-1" value="" style="shape=image;verticalLabelPosition=bottom;labelBackgroundColor=default;verticalAlign=top;aspect=fixed;imageAspect=0;image=data:image/png,iVBORw0KGgoAAAANSUhEUgAABFsAAAGQCAIAAAD+1fiPAAAAAXNSR0IArs4c6QAAAARnQU1BAACxjwv8YQUAAAAJcEhZcwAADsMAAA7DAcdvqGQAAAAYdEVYdFNvZnR3YXJlAFBhaW50Lk5FVCA1LjEuOWxu2j4AAAC2ZVhJZklJKgAIAAAABQAaAQUAAQAAAEoAAAAbAQUAAQAAAFIAAAAoAQMAAQAAAAIAAAAxAQIAEAAAAFoAAABphwQAAQAAAGoAAAAAAAAAYAAAAAEAAABgAAAAAQAAAFBhaW50Lk5FVCA1LjEuOQADAACQBwAEAAAAMDIzMAGgAwABAAAAAQAAAAWgBAABAAAAlAAAAAAAAAACAAEAAgAEAAAAUjk4AAIABwAEAAAAMDEwMAAAAABMz8BIJY/XoAAAOdFJREFUeF7t3XuwZWV95//v9/ustfY++5zTVw7QXDoxrbF/BkGDyGVwuGikaVHrN9rRUAboTFI2hJFSErqltJwUjjZRcMjE0CkqEawaf0MYavIbkqaxJthMRSGiUw0TEkzsQRG59b3POfu21vN8f39sPb/DamgbsAnNer+Kovb5rLX2Xvv0Oc3+8jzP99Ezzz1dVGPULLMs0yzTLAuaheTiSUxE3b2qJHkwFfO8lVnwLKiZi4ioVp6qlJJrdJvePzM7U3VanVZLNcxa7gORhUdPHrfixJ3P7tz91G6vJE27VUUcy4pCunumhz3Jj5KxOHnaSf/6Cf8///yD703knSzprmen2y3zlERsfGw8DmJmmYjGKrqIuyQRV7VgmnnSKuRJNGWSe2nlsAwhq4ZlTK5intxFxD1kWdbO24vHhnHYH84O0iBrhZCHQX84XrR8mDK31E9paFoUYTx0y/15ymzWZRilFfJJ298d+FA6nbw1mfe075mFtgz6XvTch1nqWSFFGT2YjrUKM6nK0j2Ja6xczFwkeRSTEJLlnoo0KNPCRZO/vPLE6eHT3cH+2WltWbsVF+/5wfCU404+/nUL94SndsueH+x8atee3ZOd8Qmb+PE/Pet9DRKChjzPs2AiyV1cVCxLqlFS0lS082rQ8zhot1sqIQsWo6hoilJFSVFMLctsbCLMFL1B0R9f3NEYZnfsTntj3OfFAs8nbN9s9LYef/wxM93+ruHeCc+7jw/z2Syqi6mFMD4+ZnkukjpjodebKQdV0LZZnhdZdzBTVWUSERcTCRZUgruIRs2iBlNpZdoaG8s6C8Ku/s5qgVSZaM/Lp8tJW1CVLsGr4UCTu2vpYiomnsSTqIqZWy6SFdJa0Jr1Xm/YM5WWFtXeFJJ1JtqplVJSTZlJlk/k3bK/d3r3UceND+IgWtJWpsFST8vdVeGF5pW0h9lYmC5jPtEph1URJUxHnXYp8zEvWu2iddzk/rR3tr+vGqYl7UnvabccxKnU7ZRiqgNvFUUhYl51Z2Usej6WtSYnpr+/Z9EiW3B8q2ylGGz/ripNh2HVX3JMuz2u48V4f3f44aM7WjqRae6emeRLJ5eeeOzUwolOMZbvGTyTsuqRf/in4WyoyhjFB9FFLKaoyfMQ2q2ilWeqKuJqamaurlnYuXNnVplksuQX275wZnqQekOJZZy0zv7tM3nZabeKE49f0OvPmBUqeUtzFe1KL032hqG7cHLJ09tn4qzkeVvyMKZe5cPpMJPyqhxWGrSysDAfm94zXYxJyFqLlixaMN6a2TkzNXFcp9XaO/PMj5/ZFStdumjxntmdpVetfCz2RYeS+diOHXsnlnYmjnbJq9i30NXZ6XLx1NF5rv3BYHbPTKdSa7WLJeNPzzwzsdTykO19ZrY3IyesOH7/8FkPA/cUOkEtiztjGEgrt9ZkazobdH1YJbHcBqVnLmMhs6C9QQx5K5X9bCh5NBv64qUTXqRSfMczvZZmU5ML+/v3D30YJrLSfChmWTYc9ibG82FvmGWSBcvaJlFi6VWSlAUP2u/3xwubHCtyUxG3qPum++3FE8HThIxlKd89s1ta+dCHWV6NFa1Bih7CoDtYODEWYprIM4tVipWoJwuzwzIPtjBveRyKJBNphYnhoBr0ZfeO8qhjrT2m4mN7+/ujpM7k+DP7e/t71USnNRF0ojDxZCbBy0rCs3uGpUhrfKxTqMXBMGqWtTRku6a74+2iP6y6lYyPZ+5lEB0MyvZYFkTbVux5ZuaYJWPj+diYH98pjlIdHwys1Z6c6e96auc/hyJmeSemFK3/xN7HFy5Z0g5je/c9fcySzniWVX0JuqATjposllbRVctS9z61f/uisckqVfuq2cpCtDTd229FNptiaLeqQX/x+Hhy2be/22oVvUHpmappq/KxEPI878YqeqXqVfIss7J0cRv2yyzL1GPIs31DHwxiFj2Ihjzbs7/sjLeOWjLpw8pT2rtvfxV14YJ2pqmUKnoSDaJZdxiHg3Tioqnu9Mz+6Zn2WLZgQacalrt3D1vtYnzB2L79uwuRiWzcBpqqqtceDitPlXbGxDTv7irjfitSKMalWFLMhDKfDPv29I9ZtHAsG7TG0rAaLCgW5sNsMKPP7hpUVVi4dHz3zDPFeCu0PM+y3U/OSLfQoamoB5NWmjy6PVPOlPvL5ccfm2z26X17pGWTixfu39sNkmVq5aDbmRyLntRURPYOh3kryz25SFYWca/ue7qbHZ35RBRNeR6qFF0liVZV8pjG2u0iy3bP9lKQQpOIdKzV6bfjnqRVESvPVT33SpKJzU7P5pOZTkjyYRwOJ7PO9A6b3Te77BdbZV5NjC3eXw0HUlk/tTzf352xhVlnUb50YizNVP2B9qbLE49e/tQPnsq9KKsUspC3QqvI9u3dt292xvNsbCLvLMhm4jAf85CXg75Ib3ywpwpDH6Yqy0Le0cXHj6Vu3PGj/UU2vmTRwieffWrhUUsrl4Vj473pfe4xRYnRNahYJeMyPjlR7hnueHq/xcyTDKXKMi1asvSYTnsi7N7Znd7pcZBU0oKF7QVLO2MTE7t3zQxmyqqqXCTLs/ZYezgc9geDEIKIqqiYZC1d9ouLBsV0P8x6Jd1eKmx8ad6J/f5s2ZtO5Ux3OBaKJZ1F2pXpfbPthRM7+ztb43LU5GRvZrBrb7UgH5/e2c1b2US7NTvcX01o2YpZETp5O/dWmPGnfrDbimLJ0qX9br8axnZRjHc6IQt79+3tD4at9tjkxORwZqY33dOQeW5FO+Rqs/v3z8Zh66jWgmXjZbV/ujfIO8WiBYvL3d3Q08GMj09MeWmxX6ayLCWKqiQtQuaZVh7f+Au/9I9/+3eV+Gzw1MpbFlpZVoy3M8v6Vbc7nAlmszNVe6xYsNBSzxeMHzU92x92BzFFVVMVF1FVNU3uWZ6llAaDQSGZBitVVLUV8rIsk3qnPVbOzA67vUqSm7lLK2RFyFQlb7VcPMVqMOjNlIMwYb0qhaRq3upkUZNnmtSqstKobWnlkoVocaixiu6VewwhpCjuFrKgQdVSyE1Uq+hmJslVzULwlLIsV1VRVVE3F40W48zsXgmuWciCBAtllBAyjSrDVA0rk9AfDFVMVNR0bLw1iH1VT5JUNPZi2Utj44W181jFYVUtOvro2K/MLKYoKWqWm1qhQTLNVKfGF/zwn7fPWpqYWjKY7bcskzJV/eH+6Zm8neWtVpSU3C0EVTUzcRcVDZmFoCJ5yFpZq9/tzczMWB7KFDUPVuR5nk0U7bbanqd3lIOB5Xk+1tJ2rqbiElRDCBpMVEVUzYKFFJOpaRIVVZfusL93Zp+HaCGe+qZf3r39qT1ltysaB9od9M01z4swERZPtAbd/WMLxgdDjwNJQ6miRJdUeR5NglQe3V1NQ5apakxJRUzUzEQky4KZqZmqhhDMTMRExF1cLMuy3Fq9/bO9Xf/Hxtpl0W4F6/Z63W6/HJQe1N0XjE+WZRVjVBF3d3ENIeSZqhVZ0Z2erYZlsmS5TnbGhtMzZSapY8cvm9zz7PSSYyfTxOCoE1qtZ+OP/25m1ouYZbNj3QVvKE5sT+z/P3v27XCfmNDT//Xbe3v7AgAAAAANs/CE3FStHgMAAABAAyzuFCai9RgAAAAAGsB8yAARAAAAgIbSjoyWWwEAAABA4+RL2qZURAAAAAAaaabfNzMqIgAAAABN5FFttLkBAAAAADRN2Yv6jl97x75n9tWPHGAwGMzOzg4Gg8FgEGOsHwZeNUIIrVar1WpNTEwURVE/DAAAAPzUoternrPqHXuePFhF5O67d+/et+9g5wCvTosXL168eHE9BQAAAEREZOGJuR18g9aU0hNPPEE5hCPUnj17fvzjH7t7/QAAAAAg4ikzs4OVRLt37y7Lsp4CR47BYLBnz556CgAAAIhYFLPwghVRr9ebnp6up8CRZt++fYPBoJ7OczgGkRYuXFiPXrbDcZ8AAABNtjC0LIRQj0VGn71mZ2f5BIbXAHfvdrsH+WE+UnblOlLuEwAA4Egxeey4pVTVY5HRh0jmy+E1YzgcHqQiAgAAQDNNh6690P91dvfhcFhPgSPTYDA4sCI6MDlSHLl3DgAAjjg33XTTQy/gpptuqp99OH3961+/4IIL6qnIBRdc8PWvf72eHppd+2dN5Pk/WqWU2HcIrxlVVR1YRbzQ/w549Tty7xwAABxxzj333FWrVp1ygFWrVp177rn1sw+nG2644dprr60VRRdccMG11157ww03zA8PXdWL5i9QEQGvMQdWRAAAADgUTz31VD16gfCwuueeez73uc/NL4pG5dDnPve5e+65p372IeqLnv++s3f+YH/9gEhZlj/60Y/q6U9d97kv1KOD+vS1v1+PgFfWiSeemOd5PT1kF1xwwYv6TVu4cCEbeQEAgNeAhx566JRTTqmnIgc/dPjMVUEi8nLLIZHJo9v6zvefveOxl1IRveuCC+vpT3351v/3dy97/9y/37isoCLCS3D55Zc/++yzd9555/xw+fLlH/vYx37v935vfngoXmZFdNddd733ve+tpy+MiggAALwc991336JFi+qpiIjs3bv3nHPOqaeHzUHKnoMcOqxGRZGIvMxySEQml7bN/CUuSOhN73qhf37rA2fP/3f9yuczPT09PT39gQ98YC5Zvnz5KBw9vv3225cvX/6ca+a55ZZb5q699957p6enb7/99vpJPyeju5qenn7mmWcO36tARJ599tkbb7yx9lPxkpfNAQAAHEHOOeec+sKdn3oly6HXvhQtVS9xccXb33bqIf5Tv/IFdLvdyy67bO7Lj33sY3OPTzvttNWrV19yySVzSc373ve+0bVf/OIXTzvttMsuu+xDH/pQ/aSfnwcffPCaa6757//9v69evfqLX/xi/fDPz6c+9al77723njbGnXfe+YlPfGKuKBqVQ3/1V3/1EgaIXm2OOuqoevQCIQAAAOabmzVXW1P0Ermb2kscI/q5e+SRR04++eS5Ly+66KK///u/Hz2+8847JycnP/vZz/7/Zz/XMcccM5rRdOKJJ47Or5/xc7Vjx46bb775d37nd3bv3j16xcPkzW9+85IlS+ppk8wVRZdffvlrphwSkS996Usf+chH5icf+chHvvSlL81PAAAAUDO/lcKBjRZeAs0Kq2cvkrvXWni95I5e995775IlSz71qU+JyFlnnXX88cf/9V//9dzR6enpyy+/XES2bdt21113bdu2bXp6etu2baOpdNu2bbv99ttvv/321atXz528fPnye++995lnnhmdORpnuPzyy0dz6kbz8b74xS+OTrjrrrvmXuIDH/jA6Pl/+MMfHsoQUO05P/CBD9x///2jmXX33nvv6A5vv/320Z2Pbubyyy//4Q9/OHo8epLp6elbbrllLhxNFFy9evWKFSvmbqyZ7rzzzo0bN/7hH/7hQw899EqWQxdccMFd8xx99NHzv9ywYUP9ghfj4x//+Ac/+MG5ougjH/nIBz/4wY9//OP18wAAAF4Fli1bVo9eIDysDuws9/KLoiyZJU/1+JC5u6qq6qgKesm10MiuXbsefPDB888/X0Q++clP/v3f//2uXbvqJ4mIyMknn3zFFVdcc801K1asmD+57kMf+tDmzZtFZHJy8uabb7711ltXrFhxxRVXjL5BN9544/wnmZycPOussz760Y9u3bp1cnKy2+3OHbrxxhu/973vTU5O3nLLLR/96EdfaP3SLbfcsmTJkq1bt84lk5OTcy90wQUXjO7w1ltvHR1dtmzZ5s2bR+GGDRt+4zd+4/rrr1+xYsVctXPaaaf9xm/8xjXXXLNs2bIvfOELo7ezffv20duZe5WmWb58+VVXXbV58+Yzzjhj/pqiw+2ee+557zzPPvvs/C83btxYv+DF2Llz52//9m+PiqJROfTbv/3bO3furJ8HAADwL23r1q1btmypb8760ENbtmyZ/0n4FXD11Vcf2EphVBRdffXV88NDFySa/DwmzY32i5zbNfIll0b33nvvaaedtnz58pNPPnn+AFHNAw888K1vfWtUJBxk0tppp532wAMP3Hnnnd/61rf+9E//dMmSJXOfp0erjK666qq5x3Prji6//PIlS5asXr16enp6/fr1IvKe97znOc8rMjr64Q9/ePPmzXO1yugZRpd/9atfHd3hAw888Cu/8iujE5566qmbb7755ptv3r59+8MPP/ytb32rNg/wT//0T0dXPfXUU2984xvnH2qsubVDH/rQh+avKXoNmCuKKIcAAMCr2VVXXVXv7fBTo4/Tr5h3v/vdz9tZ7p577nn3u99dTw/Nsccvermz5kbmjxHN1UUvwWc/+9ndu3fffvvt7Xb7IKuGXrJD30bqmmuumfypA8dnRp0VJicnD6V/Q7/fr0ci84eknlev16tHzVNrpVBrtPAasHPnzosvvvjiiy+mHAIAAPgXsejoMXvJ4zmj4me0jqg2RjRy4BKjQ/Hwww+fdNJJ3/72t+sHXrwHH3xwNM9qNDvuxz/+8be+9a35J4yG+W655ZbRiqNRePPNN3e73UsuuWT58uVnnXXWLbfcMv+SkVFnhXoqMrp89+7dl1xyyVlnnXX55ZefccYZDz/8cP2kFzB60csvv3zFihXf/OY3R+GyZcteaNrea97HPvaxWiuFUVE0vyfhka7b7f7M8hgAAACHye7ZZ19up7nROqIDwxc69DN9/vOfF5G5tTcvx2WXXbZ9+/Zbb731nnvu6fV6Bw6l3XzzzVu3bv3whz/84IMP/q//9b/m8iuuuOK444575JFH/tt/+2/PueDQfOITnxgbG7vnnnv+/b//9w8//PChb+vZ6/UefPDBP/zDP9y6deuoDPiLv/iLfr//yCOPNLOzwu/93u8d2ErhzjvvPPRv6c/RXI0KAACA14yBl3r+e87a+aOZ+hGRsix/9KMf1dOfuu5zX/j4xw71M/qX/ujmT1/7+/X0Veass8665557rrnmmhca/Dncpqen/wVfvQlOPPHEPM/r6WGzcOHCffv21VMAAAC8mky9JdPzV5+184mXUhHVo4N61VZEd91112hU6k/+5E+WLVt22mmnPf744/WTXhFURIcbFREAAABqFpyU6fmrz9z5xGz9yM+qiF4z7r///pNOOklEtm/fft111x3urV0PgorocKMiAgAAQM3kr7T1navP2vHix4iAI86BFdFcU5DD4bBWRIf1zgEAAJpj0UnjZvbzacANHHGO3KLiyL1zAACAVxWtSuOTFQAAAIBmskHFEBHwk82FX/2OlPsEAAA4UmjllmehHou4e4yxngKvUYdjEtrhWER0OO4TAACgyYq2mD3fHq3uPhgM6ilwJBsMBimlegoAAIAGG1sybu0imx+5e0qpLMu9e/fOz4Ej3e7du2OMFEUAAACYs7vb1UvWrnrwgR/ORTHGwWCwd+9eZs3htSfLskWLFhVFEUIQkaqq6mccObLsOf8vAwAAAC/BMaeO6+989D3/z3++r34EAAAAAF7rTrtw5fOvIwIAAACA17w0cKtKOigAAAAAaKJUuXk6gpdSAAAAAMBLlkp9/v2IAAAAAOA1LwQzYc9HAAAAAI2kqlREAAAAABoqpmgSrB4DAAAAQAO4RBPxegwAAAAADeAuJk5FBAAAAKCJhkM3Z4wIAAAAQCPFKMyaAwAAANBQRUH3bQAAAABN5eImQkUEAAAAoIlCyGxQMmsOAAAAQBNlQS2TUI8BAAAAoAGKLLOCdUQAAAAAmsnEpKrqKQAAAAA0QJUqM2OMCAAAAEATlTFaq9OpxwAAAADQAEnV9vd69RgAAAAAGsBVbc9stx4DAAAAQAMM+6X1hnRWAAAAANBEQc2GVarHAAAAANAA3k/miV5zAAAAAJpIo1iMVEQAAAAAmshdLVVURAAAAACayCWYuNVj4AgxPT1djwAAAIAXw0yyegYAAAAAzWCmzJoDAAAA0ESe0qFOmVu1atVNN920adOmM888s37s8Fu7du2mTZs2bty4cuXK+rGfq1WrVv1LvcdD9GLvcGpqavPmzWvWrKkfeK5Vq1Ztfa7169dv2rRpfnLHHXfULxMRkU2bNq1atWr0eM2aNWvXrh09PvPMM2+66abnnHqAtWvXfuYzn6mnAAAAwCvCUzKXn71D69q1azds2NBqtR577LE9e/aMwk2bNm3atKl+6uHx1FNPPfbYYytWrLjxxhsPvRh4CbZs2bJ06dL3v//99QOvGi/2Dj/1qU89/PDD73znO6empurHnuvuu+8+99xzH3300XPPPXfjxo0ism7dunN/6qGHHrrvvvvq1xzgjjvuWL169ahwffe7371t27b6Gc91+umn33777fUUAAAAeKWYWKxnz7Vy5cpLL730gQceWLdu3fXXX//oo4/Wzzj8tmzZcv31119xxRU7d+789Kc//TM/3M8ZDW3NDXGsX7++fsYBvvOd75xxxhnPOxg1GjmZ+/KVrAnnO8gd1mzcuLHX623YsOHv/u7vbrjhhkO5pOarX/3qmWeeuX79+l6v98d//Me1o5/5zGc2bdq0fPnyiy+++Ktf/eroz2XNmjWPPvro1NTUihUrvvKVr9QumW/VqlUrV66cPxJ1WMtdAAAAoMYsmGc/Y4zosssuE5EbbrihfuAVt2PHjq997WudTueiiy6qH3s+a9as2bBhw+LFi7/85S9v3Lhx+/bt55xzzs+sCv78z/+82+0e+iDMK+9Q7nBUaYjIhg0bROQrX/nKzTfffN1111155ZX1U3/qwgsv3Lp168qVK7du3Tq6SkRuvvnmT3ziE8cdd9xcMt8f/MEfrFu3bvXq1V/72teefPLJiy66aFQlbtq06YYbbhgbGxs9fqE65+KLL/7kJz85GoNat27djh077r///vpJIiKyfv36n/kHBwAAALxYIQQL+c/orHDcccc9+uijO3bsqB8QGY0SbN26dfPmzRs3bpwbuplblHLHHXfMz0fLWtavX3/HHXfMDQvMLTsZffDdvHnz6ML5+ZwtW7Z0u903vvGN9QPP59d//dcff/zxq6+++o477tiyZcuGDRsuvfTS+WNcV1555datW+fWwIzs2LHj4YcfPueccw59JOqlva+579JNN920du3a0Qlzi2oO8oQHv8PRhdddd93f/M3fzC9j7r///iuuuOKEE04Y3cOB1x44a2501Y033njccccdeP58F1988a233vqVr3xl3bp169at+8u//MtHHnlkzZo1oy+ft87ZuHHjI488MnfoQx/60K5du+on/dQ555wzKq6e96cCAAAAeGksBBtUg3r8XMuXL3/sscfqqYiILF26dMmSJRs3bty8efMZZ5xx9dVXj/If/OAHd99999133/3kk0+eccYZ11133dwlv/Vbv3XhhRc++eSToxPuvvvuuc/E69evv/DCC++7776NGzd+5zvfufTSS5+3H8Djjz++aNGienqAVatWTU1NfeMb35hfy9XquhNOOEFEli1bNj8UkVtvvfXQR6JGXsL7+u53v7tx48bHH3+81WqdfvrpX/nKV77xjW+cd955owrtIE94kDucmpr6kz/5k3a7fcUVV7zzne+cq6ZGRvXVn/3Zn73xjW+84ooratceaHTV5z//+ampqdG1z1uQrF+/fvv27aNSc1S3XHzxxW9729tGj5+3ccLGjRsXLVp0/fXXj76cmpo6/fTTly5d+kJ11+rVq2+77bbBYHDppZdu3rz5M5/5DENGAAAAePnyPNNzPnDqd+/5Xv3IPFu3br377rvnPrzO2bRp09KlS+eKlo0bN5588smrV6+unXbllVd+8IMfXLNmzaga2bRp08qVK+e+nO+OO+7Yvn373LDGpk2bBoPBVVddVTttNBls3bp1tbxm1apVGzZs2Lhx45YtW+rH5lm1atXznnDTTTcdd9xxtZKs9q2Yfycv+X2NLvzkJz95//33j6a6jV7iIE848rx3+Lw2bdp0iN+u+cncOx0tnbr++uvvuOOOT3/607WFZGvXrr300kt37NixefPmuVVDq1atOuWUUw78mRlZtWrVxRdffPXVV8+9tfXr1y9evLjX6z3++OMHX3q0cuXK97///eecc06n0zn33HOnp6cnJyfrJwEAAACH5tSzTrVOZ6weH7L505z27NnT6XRGj1euXDlac79p06a3v/3tInLqqaeODv3N3/zNqEjYtGlTbXHI1NTUGWecMTegsXLlylarNXf0MHnecmhUD0xNTR1KvTHyMt/XaPxnNGNtVEgc5AlHXuwdHtyWLVtG63lG9zB3G3M2btx433331cqh9evXn3feeY8//vhf/MVfnH766S+0Xqhmy5Ytl1xyyVw5tHLlyre97W033HDD17/+9fPOO69+9jwrV65817ve9ba3va3T6Tz++OP1wwAAAMCLpCq2f/9MPX6ubre7ePHienqAdrs9ejA1NXXjjTeedNJJjz322GOPPfbkk0/OP+2OO+5Yt27df/2v/3UwGIwWh8z/TP/AAw9snOe2226bf+3IXN11KA6cEXeItmzZ8vjjj7/zne+sH3gBL/991Rz8CQ9+h3PV11wNVksO7Lm3fv362sm13Ye++93v1nrNjWa4XX311d1ud3p6et26dZdeeulXv/rV2qy5zZs3H/hyc6ampq699trNmzeP2ip0u93nnZi3du3a0XZYq1ev3r59+yc/+clLLrmkfhIAAADwIqmqLVq8sB4/1z//8z+vWLGinj7XaB3IQw89NBoO6nQ6f/Znf3b99ddff/313/tefUreo48++sd//MdXXXXVpZdeKiJnn332KN+xY8eiRYu2zHPgivypqamDrGuab9SDYfXq1S+0NGWk1lZhvm984xsrV66cP+7R7XZf97rXzX25dOnSuccv8309rxd6wjkH3uHIueeeO+pqUBv2WbNmzZe//OUDx39Gk+JqJ9cWGh24PeuOHTuuv/76+ZP61q1bd8kll6xbt+5rX/vad77znVFbhdWrVx/4ciNTU1M33HDDk08+OTdT7rbbbluzZs2Bf2SXXnppq9W67bbbVq9evWHDhkP8BgIAAAAHZ6rh/zr1DY898kT9yDzLli0766yznn766e9///vz84suuqjT6fR6vXe84x0f/ehHO53Of/gP/2Hnzp1TU1Pvete7sizLsuwd73jHW97ylmOPPTbLsieeeGLnzp2f+cxnzjjjjLPPPvvss8/+N//m3xx11FF/+7d/++1vf3v0nKtXr37rW986OTm5fPnyt771rSmlnTt3zn/Rf/fv/t0b3vCGP//zP3/iiYPd80hRFGedddYZZ5yxaNGiY4899q1vfet73/veb37zm3MnbNy48cMf/rCqPu9Gotu2bXvPe95z9NFH/4//8T9GyZvf/Oa3vOUtK1euPPXUU3/zN3/zF37hF/76r/96dO1LeF+j2WK/+qu/unDhwqeffnpqamr+mzr4E44ceIdzxsfHP/vZz/7jP/7jzp07L7roor/6q78Skd///d83s9qTzDnzzDNPOumkf/Wv/tXZZ5998cUXv/3tbx9NKRxVYvO/bzUXXXTRo48+Ov/H4/Wvf/2xxx57kEtGU+A++9nPPvnkk/PXLz3xxBOvf/3r3/e+941ueM4DDzxw6623HvjHdO21137+85+vhQAAAMAhOu7EZeGoE5c889hzqo6abdu2nX/++eedd96uXbvmf+q96KKLVqxYcfbZZ//yL//y97///bnNW5944oljjjnm9NNPP++885YsWXLrrbe+613vOuGEE0II3/zmNy+88MLzzjvvDW94wxve8AZ3/5//839+6UtfGj3hP/zDP8zOzp5yyim/9mu/dvbZZ5900knf/va35xcJV1555fvf//7Rh+O58CC2bdv29NNPn3DCCRdccMHZZ5/99re/PcY4/6P2ypUr3/SmN23ZsqVW7M35pV/6pfPOO++BBx4YFWYPPfTQ8uXLTz755De96U2jm5+bSPYS3te//bf/du3atQsXLhxVHSeccML8ezvIE85Xu8M53W631+stWrTo+9///qgiWrly5UknnfSFL3xh/mlzbrrpplNPPbXVam3btm3r1q3/6T/9p7kVVoejIrryyitHrc8/97nP1Q7dd999v/7rvz4acux2u6Ow9u7mUBEBAADg5Vh81CL91fNP+advb68fea6pqanrrrtu5cqV3W73uuuue+XnLI0amo3mif3BH/xB/fBhMzU1ddttt913330vNO/rX9yBdzhq9l0/7wDnnntuPTrAmjVrfvd3f7fb7f7RH/3RC7WgGPWy+8u//Mv5Jxy819z69etf97rX/cf/+B9rfRrmTE1NfepTn/ov/+W//MyfNHrNAQAA4OV4y+mn6Knnn/K9n1URjZx55pkrV668//77X+iD7OGzatWqycnJ//2///cr/9Jr164dHx+vNRV4VXn13+HhQ0UEAACAl+OU00/Wt5//q//w7X+qHwGOBFREAAAAeDnefNqbzbyeAgAAAEAjqNiC8fF6ChwhGCACAADAy+HiVowV9RgAAAAAGiDGZNP96XoMAAAAAA3gSSzkWo8BAAAAoAHMgsVBWY8BAAAAoAHykJl4qMcAAAAA0ADtom1ln/bbAAAAAJqo3WpbCKwjAgAAANBEWZabeKzHAAAAANAAIQRzsXoMAAAAAA2QxM2diggAAABAEyVPloR1RAAAAACaKHkyF/YjAgAAANBESdyE5tsAAAAAGsnFTZ1ZcwAAAACaKZnQWQEAAABAI6mIpVRPAQAAAKAJhoMBA0QAAAAAGmrY75kq64gAAAAANFE5GJjSbA4AAABAIwU1SywkAgAAANBInfFxc2eMCAAAAEAThSI3VZorAAAAAGgiN6UiAgAAANBQyYxecwAAAAAaykTMGCMCAAAA0EwxmRhjRAAAAACaKKZkzn5EAAAAAJrJ3YRJcwAAAAAaKaVEPQQAAACgqVyMVnMAAAAAmknZjAgAAABAk5kKg0QAAAAAGspCyOoZAAAAADSBu/W63XoKAAAAAA3gLpYVeT0GAAAAgEZIlrWYNQcAAACgkTyZqNdTAAAAAGgGE3rNAQAAAGikFKMJQ0QAAAAAGinGaO6URAAAAACaSEWpiAAAAAA0lKpYrFI9BgAAAIAGcBFzFhIBAAAAaCrzyBgRAAAAgCZyFUuJMSIAAAAATaSilpwxIgAAAACNpGJs0AoAAACgmdyVHVoBAAAANJYbQ0QAAAAAmsldLAuhHgMAAABAA7i4CdPmAAAAADSSu1usqnoMAAAAAM1g9QAAAAAAGsPyLKtnAAAAANAAamZGtzkAAAAAjeSezJ3OCgAAAACaKEYqIgAAAAANZqbMmgMAAADQRKZmyVM9BgAAAIAGcHcTowE3AAAAgIaykh1aAQAAADSSilqWhXoMAAAAAI3g7EYEAAAAoLksRTorAAAAAGgidzcGiQAAAAA0lZrQfRsAAABAU5nXEwAAAABoCnNqIgAAAACNpCrmwkIiAAAAAA1lIbN6BgAAAACNYNYea9VDAAAAAGgG6/f79QwAAAAAmsDdyoru2wAAAACaSEVscnKsHgMAAABAA7i4DcuyHgMAAABAM1gVmTUHAAAAoIlUxTK6bwMAAABopORunfF2PQYAAACAZrDOOJ0VAAAAADSRq9jePfvqMQAAAAA0gLlYf2ZYjwEAAACgAVTE2kWrHgMAAABAA6ioiXs9BgAAAIAmULHEfkQAAAAAGkotxXoGAAAAAI1gYkFDPQUAAACAJlCx8fFOPQUAAACABnARGw7LegwAAAAADeAiFllIBAAAAKCRYkpWVlU9BgAAAIAmUDEzq6cAAAAA0ACe3Ny1HgMAAABAA5ioefJ6DAAAAAAN4O4mwhgRAAAAgCYaVUQAAAAA0ETubioURQAAAACaSFVNhHVEAAAAABrJhc4KAAAAABpKhSlzAAAAAJrKXcwZIgIAAADQSEpbBQAAAADN5WLiqZ4CAAAAQBOoWKKzAgAAAIBGclNT1XoMAAAAAA3grpZorQAAAACgkdyTCWNEAAAAABpJXcwZIwIAAADQSEGEdUQAAAAAGspETCiIAAAAADRSVZUmTJoDAAAA0EghD+aURAAAAAAayXKzegYAAAAAzVBKNGEhEQAAAIBGSuZGPQQAAACgmYIEZs0BAAAAaChLmRn7EQEAAABoJBUxpbkCAAAAgGZSMXe6bwMAAABoIvdkSq85AAAAAM3kbkq3OQAAAACN5CmxHxEAAACAhvKYaKsAAAAAoKFSdEt0VgAAAADQSJmquad6DAAAAAANUBS5eWKMCAAAAEATFUVhwqw5AAAAAI2UTE2VXnMAAAAAmiilSEUEAAAAoKFU1ZT9iAAAAAA0Eju0AgAAAGiuGCurqqoeAwAAAEADuIilxH5EAAAAAJrJLcusHgIAAABAA3hyxogAAAAANJS70GsOAAAAQFO5mIvXUwAAAABogOjJVFhHBAAAAKCJUnTKIQAAAABNpWasIgIAAADQWCbOOiIAAAAATWSmzJoDAAAA0FCqas4YEQAAAIBGchFTVhIBAAAAaCQzs+SpHgMAAABAMxiT5gAAAAA0U0qJWXMAAAAAGipFKiIAAAAATeUi5olpcwAAAACayN3ZjwgAAABAc9FZAQAAAEBDhRAsMWsOAAAAQCOpipkxcQ4AAABAE4VgzJoDAAAA0FBmaqZ03wYAAADQRMmd/YgAAAAANJS7mzJGBAAAAKCRPCZGiAAAAAA0lIubMEYEAAAAoJFUzVxoNgcAAACgiVSMMSIAAAAADWUaTDzVYwAAAABoAherRwAAAADQDCk5O7QCAAAAaCj3ZCGEegwAAAAADZCSWzkc1mMAAAAAaAAzsxRjPQYAAACABogxWghZPQYAAACABnBxi7GqxwAAAADQAFUVTZUG3AAAAACayIKaGt23AQAAADSRqZk7FREAAACARnIxZYdWAAAAAM2kzJoDAAAA0FSqyhgRAAAAgOZihAgAAABAc5kwRgQAAACgkdydMSIAAAAAzWUuXs8AAAAAoAFUxMSpiAAAAAA0kaqyjggAAABAU7mbMGsOAAAAQDO5G/UQAAAAgGbyJOasIwIAAADQSKr0mgMAAADQXGr1BAAAAAAawtQYIgIAAADQTKrsRwQAAACgqVzEKIgAAAAANJSKqbBDKwAAAIAmUlWjIAIAAADQTKpiSkUEAAAAoKnMaMANAAAAoJHMjHIIAAAAQEONZs0xbQ4AAABAQzFGBAAAAKChVJTu2wAAAACaStmhFQAAAEBzOfsRAQAAAGgqFRNKIgAAAACNlNzNmTYHAAAAoJmUXnMAAAAAmiqlZIkxIgAAAAAN5YwRAQAAAGgoVTNJjBEBAAAAaCJVNTrNAQAAAGgmT255ltdjAAAAAGgAd7eZmZl6DAAAAAAN4C4WQqjHAAAAANAA7m5qtJsDAAAA0ExuLvSaAwAAANBMaqJ0mwMAAADQTGrJGSMCAAAA0ERmagwRAQAAAGgqNRFKIgAAAABN5J5MGSQCAAAA0EjubgwRAQAAAGimJGIsJAIAAADQTCpiTq85AAAAAE1l1EMAAAAAmklFTCiJAAAAADSSilo9AwAAAICGcNYRAQAAAGgqFTFh2hwAAACARlIRdmgFAAAA0FCqasIWrQAAAAAaSV3orAAAAACgoVzcRFlHBAAAAKCJXMSYMwcAAACgmZK4JbpvAwAAAGgkd6fXHAAAAICGcnc6KwAAAABoKBU1Js0BAAAAaCYVteSpHgMAAABAM5iwjggAAABAU7GOCAAAAEBDeYqMEQEAAABoLhM6KwAAAABoJDMzodkcAAAAgEbKzRgjAgAAANBQlqIJy4gAAAAANFJmwcwoiQAAAAA0kaowRgQAAACgoVSFESIAAAAADRVTsixk9RgAAAAAGsBVzCzUYwAAAABogGEVTVI9BQAAAIBGULXZ2V49BQAAAIAGMAvWbrXrMQAAAAA0gCc3tXoKAAAAAE3gIuYsJAIAAADQSC5uyamIAAAAADSRipuwRSsAAACAZnI3MxYSAQAAAGgiU6ccAgAAANBQRZGb10MAAAAAaARPbsIoEQAAAIBGSu4mtFYAAAAA0EjuYi7MmwMAAADQRGrGGBEAAACAhqpiZBURAAAAgIaKyc2cWXMAAAAAmshVjDlzAAAAAJpKTZSaCAAAAEAzGeuIAAAAADSUJzWabwMAAABoLFNKIgAAAAAN5XRWAAAAANBQqomKCAAAAEBDqSmdFQAAAAA0lIqzjggAAABAQxUhM3EqIgAAAABNFEKgIgIAAADQWG7OrDkAAAAAjZRSsqqK9RgAAAAAGqBKbimlegwAAAAADVBFN9NQjwEAAACgAZK7ibBHKwAAAIAmSi70mgMAAADQUCpikXVEAAAAABopmFrIs3oMAAAAAA1g4hbZjwgAAABAI6m4JRorAAAAAGgkUzcKIgAAAADNVIiYMmkOAAAAQCNNtFumZvUYAAAAABoguZsq8+YAAAAANFFvODQVKiIAAAAAjWTBnB1aAQAAADRSJWKBdUQAAAAAGilGN5YRAQAAAGimpGrisR4DAAAAQDOYO+uIAAAAADSTMmsOAAAAQEO5u+Uh1GMAAAAAaAB1seBejwEAAACgAYKqURABAAAAaKagYsp+RAAAAAAaSTWZKRURAAAAgEbyZEpFBAAAAKCRTM1cWEgEAAAAoIksBHOP9RgAAAAAGkAts2Bs0QoAAACgiYbD0lpFVo8BAAAAoAHKWFmRh3oMAAAAAA2QF5lV1bAeAwAAAEADuCSTlOoxAAAAADRAJmoxZx0RAAAAgCbKTK3HGBEAAACARlJPpiGvxwAAAADQCG46KOshAAAAADSAqlnHrB4DAAAAQAMkMf3N//sdHof9QdnrxZCFKDoQjZKrZin2Fx092U/9QRm7O/qFhM7EeBbypOX+6f1uFrIw6EdzaxdBo5vHibHQaRdJbH+v+7rlS/ZJtf3p3dlQcmmZm3tMMcWU9KdlWDDLgom7x0rUJZhkeW9QRXcXNZdgmlI1NjHmovv3znqlImJmIm4mIq5mWQguYqaeJMbK3cVFVUVVRF28SlHcs2BBg4uLqaRYWMiDtou8SlV/MCyj50UrJXF3j1FEPWlySe6WqaoHlUxEqzTeKvJCB7GcHpRDV9cQstyrSmPMVFp5Lp7KlKJZjFZVVUpRVEPIx4qg3l8wUZiFPdPdQTJXc08mElQmxlqtLJTl0CxUnvplqZkVFsY0tPO89NSrqm4ZY/Sq8hTFVfNMxJOLehJ3MfHMvAiam4/loVWEvJVlrZAVbqoWzDWJWAhjorm77Jvuzk73CssyCyJelqWLdPvD7qBKriHL86IQlxgHwypFt8FgMNbKNKaxokhVP2SqorGyoVty6Wj6peXtlPyZ3YOYxKOKeKVRUp5EWu08JB3L4uIFWax67XEZlDYoi0ytP91dOJ57HnfsrvYOJKqGoRy1MLQ74bGnB0lDK0uv/4XJvCr3zpa7ZmN3IOIi7lkWtN3et7+bqtSyMLUoT1o+ubdMnmcaVD1qFIntELRKIWv3hpW7Z61MvfKqLDRMTI5Pd3szvTLvFFmWZ6qF+DBWVYpFnoXk6l7FKuRZFsxjlYlPLRpvtaKbPL1zOFtaNEtSWcpM1CSpenQRTxOZZpqyPB9UHqP2h5WLZFmWZ1mmKlKJWIwxz/NWUeSZWRAXme32Zro9tcxCGO0XllwshCp6nmcxeYzRslCVlSbX5KbS6bSLPE8pTk9Pi4iFIBbcffTTb6YpRU/RTINqpzPW7/eHZZnluah1+4NOq93KVL0aDMqQZWWMwyp1B54XWQg2LKuxsY6pmkoWpOx3izzkeT6sZO9Mr0raLoKZl2XlrnlWHHP00eNj2XA488wzO0zbaioqQTVVpSebWLBgYsn4vj17ZroDa3WSy7Ac9ru9oKaiZVmamXsqitawGhZFqz/oZ1kmKurJRcyyzCwOyqmli3q96dlBjGKuUrSyWFamFkVCnvd6PVM18SCuKbXbRaqqkAUXKatKRFw0C8FdzLLhsCyrKrp0OmNVWapZdI8puXvIsjzLUlXFqsyzTEVCZlUVU/K8KKqYknieF71+Lw+hCGHYH3Qmx/dP71cLRZ6nJP1+T1WLPCvy3N1Vpd8fFnkhqcpClrfau/ftH18wXlVVOShTlTRIq90aDiuPScRVZXJicrbbddVWUfT7/U6nrSqzs72syKsUJ8Y6mWm3O6vBgoagOtvtJZHO+FhVVXmexxhTVbUza+dZskLyVr873RsOPEmRhdGPiKcqU81FxvJCPbknUUk++nvQxTXLsxg1umgWuoOei0wuGK9SuWtXb8Hk0ul9M1nQyQUTg0Ff1ZcsWrJzx07NMs1keu9su+hkbRlrt/oz/VRJFcvxzpikVOTZbH+21W4NB4PhYLhwYiwE9ZRSSq7iLi4u4qqWXGLyYVml5EXRqqrSPWlQC6YhJHdTc9GyLPMsiEuR52IyiJWLiHtQVQ2DwTAEy7IsC2EwGKSURMxFBoNh0WoVeV5VZYwxBBNxFclCEHcRSVWloi7uKqKShSxGN9FgVg1LMw1meRaqqnQXNUvunlJKbqaqombinlJUFRdN7p48WFDVoiiqskwxuicVcfEQzN1VTVxTSqKqIiGY/uRX2EU0xSQiLhLC6L9vqqpmFlNyF3d3NRdRlRRjMGu3WymlFFMwq6pKRFJKZpLnhYjEGEe/cS4eqzT6j1RK7imKqruEEKqqjCkFMzWrqqpotUbf1aos1VREVETcXTSlZBayLBNRT5WnpCFz0SrGLAvBrCyHg0HZHmtXVUypyoOJhegSirysUr83EPexVpFl5u7Ts30PeX9Ymmm71SrLYVAzVVUph6W65FmWBcmCSUpBVVVMVVTUQpVSWcUqpZQkZHkVh3keUhWzrNBQ7N43nRV5HtRiZWpVkujJzAbDMopWyZOLmalLZiopjbVzU82CZVkWUxoMy5hiyPNed5Bl1mm1MhX1lJIHs+QeU1JTVYkpiqSgFkVFszzLq7JKnsqyDBZMtYqVibTbbRUpq2FVViHLXDUmr1JylXar1RlrDXrdYDYsK1VpFa1ud+ieQh7KKsYoIWhQMTVPKcWYZZmoJndRiTElT55cXSbGO0mSBlVXL2O/PxT1VrsQk1hVcRjHiiKYWnAXSe6ilmIUSSairj/9TGUhUxcpo5cpDapURmu18xhTjDELIaVUxigqIWSePKiaSrvIxZOLDIZl0W6LWb/fL8tq9Deqi2atVpU8uVYxqmpQkbJq5bmIlMNSVC0LyVNyzyx4SlVVRfU8zzOzalgGsTzLy7K0EIblsHJvj43FqjLRVA3zzIqiiMlnev3KJQTNc0tVbLfyEPLhYFhVsao8ZEHNBlXZGhtTVXExcRX5yU+3qIjHqlJ3TykLai76k98m1WDuP/mtz8xilVR+8vnTzFxkGGNvmKJLHjSoZKqmoqoubllWxZRSStFj8larENf+cJiFUI6+G6amsd1ueUoxxhiTqYVgIYQqxrKsRNTyECyUvWGrlVWShjGGYF6mTt5KyavRn6NJFkKeZTHGOPrtEE2qriGJmlmKVUpVu9Uy8SLLynKYYlLxLOSeUkxJdfTXsnjyIs9/+lduUtV2O4+xqmIMZsEsWPCUBoNSQ5ZEomoUEQ1ioRxWMcZWu1CVfq+vqsmlqqKIumsSF/FMpVDttPIQ1DJz0+5gGKPH6J5cgpmFEIK7xxhT8qr6yd9XauaeJsfyFMvRgE+eZeJuIqbiqdKUssxEbDCsqiSVW3R1tZiiqqh5EcL/B1q9aHmCCVfOAAAAAElFTkSuQmCC;" vertex="1" parent="1">
          <mxGeometry x="60" y="160" width="1115" height="400" as="geometry" />
        </mxCell>
        <mxCell id="9VsbXfIdv_9POeoBGJ0m-2" value="" style="rounded=1;whiteSpace=wrap;html=1;fillColor=none;strokeWidth=3;strokeColor=#FF0000;dashed=1;" vertex="1" parent="1">
          <mxGeometry x="67" y="222" width="60" height="27" as="geometry" />
        </mxCell>
        <mxCell id="9VsbXfIdv_9POeoBGJ0m-5" value="" style="endArrow=none;dashed=1;html=1;rounded=0;strokeWidth=3;strokeColor=#FF0000;" edge="1" parent="1">
          <mxGeometry width="50" height="50" relative="1" as="geometry">
            <mxPoint x="292" y="255" as="sourcePoint" />
            <mxPoint x="72" y="255" as="targetPoint" />
          </mxGeometry>
        </mxCell>
        <mxCell id="9VsbXfIdv_9POeoBGJ0m-7" value="現在の仮想環境&lt;div&gt;詳しくは後述&lt;/div&gt;" style="rounded=0;whiteSpace=wrap;html=1;fillColor=#0050ef;fontColor=#ffffff;strokeColor=#001DBC;fontSize=16;" vertex="1" parent="1">
          <mxGeometry x="110" y="340" width="140" height="60" as="geometry" />
        </mxCell>
        <mxCell id="9VsbXfIdv_9POeoBGJ0m-8" value="プロンプト" style="rounded=0;whiteSpace=wrap;html=1;fontSize=16;fillColor=#0050ef;fontColor=#ffffff;strokeColor=#001DBC;" vertex="1" parent="1">
          <mxGeometry x="330" y="300" width="120" height="60" as="geometry" />
        </mxCell>
        <mxCell id="9VsbXfIdv_9POeoBGJ0m-9" value="" style="endArrow=classic;html=1;rounded=0;exitX=0.5;exitY=0;exitDx=0;exitDy=0;strokeWidth=3;strokeColor=#FF0000;" edge="1" parent="1" source="9VsbXfIdv_9POeoBGJ0m-7">
          <mxGeometry width="50" height="50" relative="1" as="geometry">
            <mxPoint x="180" y="331" as="sourcePoint" />
            <mxPoint x="107.72248803827756" y="240" as="targetPoint" />
          </mxGeometry>
        </mxCell>
        <mxCell id="9VsbXfIdv_9POeoBGJ0m-10" value="" style="endArrow=classic;html=1;rounded=0;exitX=0;exitY=0.5;exitDx=0;exitDy=0;strokeWidth=3;strokeColor=#FF0000;" edge="1" parent="1" source="9VsbXfIdv_9POeoBGJ0m-8">
          <mxGeometry width="50" height="50" relative="1" as="geometry">
            <mxPoint x="312.27751196172244" y="349" as="sourcePoint" />
            <mxPoint x="240" y="249" as="targetPoint" />
          </mxGeometry>
        </mxCell>
      </root>
    </mxGraphModel>
  </diagram>
</mxfile>
